<svg width="40" height="40" viewBox="0 0 40 40" fill="none" xmlns="http://www.w3.org/2000/svg">
<path d="M20.2271 3.75053C11.088 3.6271 3.6271 11.088 3.75053 20.2271C3.87241 28.9919 11.0091 36.1287 19.774 36.2505C28.9146 36.3755 36.374 28.9146 36.249 19.7755C36.1287 11.0091 28.9919 3.87241 20.2271 3.75053ZM30.1037 29.3169C30.0725 29.3506 30.0344 29.377 29.9919 29.3943C29.9495 29.4115 29.9037 29.4192 29.858 29.4168C29.8122 29.4145 29.7675 29.402 29.7271 29.3804C29.6866 29.3589 29.6514 29.3286 29.624 29.2919C28.9252 28.3777 28.0694 27.5949 27.0966 26.9802C25.1076 25.7037 22.5873 25.0005 20.0005 25.0005C17.4138 25.0005 14.8935 25.7037 12.9044 26.9802C11.9317 27.5946 11.0759 28.3771 10.3771 29.2912C10.3496 29.3279 10.3145 29.3581 10.274 29.3797C10.2336 29.4013 10.1889 29.4137 10.1431 29.4161C10.0973 29.4185 10.0516 29.4107 10.0091 29.3935C9.96667 29.3762 9.92853 29.3498 9.89741 29.3162C7.60497 26.8414 6.30639 23.6078 6.25053 20.2349C6.12319 12.6326 12.3615 6.26928 19.9669 6.25053C27.5724 6.23178 33.7505 12.4076 33.7505 20.0005C33.7532 23.4548 32.4506 26.7824 30.1037 29.3169Z" fill="#E0E0E0"/>
<path d="M20.0003 11.25C18.4597 11.25 17.0667 11.8273 16.0769 12.8766C15.0871 13.9258 14.5925 15.3766 14.7042 16.9336C14.9308 20 17.3066 22.5 20.0003 22.5C22.6941 22.5 25.0652 20 25.2964 16.9344C25.4121 15.3922 24.9214 13.9547 23.9152 12.8859C22.9214 11.8313 21.5308 11.25 20.0003 11.25Z" fill="#E0E0E0"/>
</svg>
