<svg width="28" height="28" viewBox="0 0 28 28" fill="none" xmlns="http://www.w3.org/2000/svg">
<path d="M25.5669 13.608C24.5606 9.05906 23.0682 6.15734 20.6762 5.45023C20.2129 5.31508 19.7325 5.24767 19.2499 5.25007C17.7794 5.25007 16.6189 6.12507 13.9999 6.12507C11.3809 6.12507 10.2183 5.25007 8.74992 5.25007C8.2472 5.24747 7.74656 5.31483 7.26242 5.45023C4.8671 6.15734 3.38726 9.06179 2.36953 13.608C1.33046 18.2515 1.51859 21.9205 3.54968 22.6248C4.97156 23.117 6.24304 22.0993 7.44726 20.6014C8.81445 18.8952 10.4983 18.3702 13.9999 18.3702C17.5016 18.3702 19.1198 18.8952 20.4891 20.6014C21.6923 22.1004 23.0108 23.1055 24.3949 22.6336C26.6382 21.8674 26.6065 18.3062 25.5669 13.608Z" stroke="white" stroke-width="2" stroke-miterlimit="10"/>
<path d="M15.9688 13.3438C16.5728 13.3438 17.0625 12.8541 17.0625 12.25C17.0625 11.6459 16.5728 11.1562 15.9688 11.1562C15.3647 11.1562 14.875 11.6459 14.875 12.25C14.875 12.8541 15.3647 13.3438 15.9688 13.3438Z" fill="white"/>
<path d="M18.375 15.75C18.1586 15.75 17.947 15.6858 17.7671 15.5655C17.5871 15.4452 17.4469 15.2742 17.3642 15.0742C17.2815 14.8742 17.26 14.6541 17.3025 14.4419C17.3449 14.2296 17.4493 14.0347 17.6026 13.8819C17.7558 13.729 17.951 13.6251 18.1633 13.5832C18.3756 13.5413 18.5956 13.5633 18.7955 13.6465C18.9953 13.7297 19.1659 13.8704 19.2857 14.0506C19.4056 14.2308 19.4693 14.4425 19.4687 14.659C19.468 14.9486 19.3525 15.2261 19.1474 15.4306C18.9424 15.6351 18.6646 15.75 18.375 15.75Z" fill="white"/>
<path d="M18.375 10.9375C18.9791 10.9375 19.4688 10.4478 19.4688 9.84375C19.4688 9.23969 18.9791 8.75 18.375 8.75C17.7709 8.75 17.2812 9.23969 17.2812 9.84375C17.2812 10.4478 17.7709 10.9375 18.375 10.9375Z" fill="white"/>
<path d="M20.7812 13.3438C21.3853 13.3438 21.875 12.8541 21.875 12.25C21.875 11.6459 21.3853 11.1562 20.7812 11.1562C20.1772 11.1562 19.6875 11.6459 19.6875 12.25C19.6875 12.8541 20.1772 13.3438 20.7812 13.3438Z" fill="white"/>
<path d="M8.75 9.625V14.875V9.625Z" fill="white"/>
<path d="M8.75 9.625V14.875" stroke="white" stroke-width="2" stroke-linecap="round" stroke-linejoin="round"/>
<path d="M11.375 12.25H6.125H11.375Z" fill="white"/>
<path d="M11.375 12.25H6.125" stroke="white" stroke-width="2" stroke-linecap="round" stroke-linejoin="round"/>
</svg>
