<svg width="40" height="40" viewBox="0 0 40 40" fill="none" xmlns="http://www.w3.org/2000/svg">
<path d="M4.9431 15.7812C4.7323 15.7832 4.52476 15.7293 4.34154 15.625C4.20715 15.5495 4.08917 15.4479 3.99452 15.3262C3.89986 15.2045 3.83042 15.0652 3.79027 14.9163C3.75011 14.7675 3.74004 14.6121 3.76065 14.4594C3.78126 14.3066 3.83213 14.1594 3.91029 14.0266C5.41654 11.5125 9.99935 5.64453 19.9993 5.64453C24.3329 5.64453 28.1337 6.78281 31.2908 9.02656C33.8892 10.868 35.3454 12.9523 36.0392 13.9563C36.1272 14.0828 36.189 14.2257 36.2209 14.3764C36.2528 14.5272 36.2543 14.6829 36.2252 14.8342C36.1961 14.9856 36.137 15.1295 36.0513 15.2577C35.9657 15.3859 35.8554 15.4956 35.7267 15.5805C35.4637 15.7543 35.1434 15.8189 34.8337 15.7605C34.5239 15.7022 34.249 15.5255 34.0673 15.268C32.8118 13.4625 28.9837 7.96875 19.9993 7.96875C11.2298 7.96875 7.26497 13.0242 5.97357 15.1922C5.8698 15.3732 5.71958 15.5233 5.53843 15.6268C5.35727 15.7304 5.15175 15.7837 4.9431 15.7812Z" fill="#1D1B1B"/>
<path d="M25.038 38.7492C24.9383 38.7504 24.8388 38.7391 24.7419 38.7156C17.488 36.9187 14.7794 29.6672 14.6693 29.3656L14.6521 29.2992C14.5927 29.0898 13.1372 24.1172 15.3716 21.2047C16.3958 19.8766 17.9537 19.1953 20.0107 19.1953C21.9232 19.1953 23.3029 19.7898 24.2513 21.0203C25.0326 22.025 25.3451 23.2641 25.6474 24.4578C26.2826 26.9437 26.7412 28.2492 29.381 28.3836C30.5404 28.4422 31.3021 27.7641 31.7341 27.1867C32.9021 25.6125 33.1052 23.0461 32.2247 20.7805C31.0935 17.8562 27.0787 12.343 19.9997 12.343C16.9779 12.343 14.2013 13.3141 11.9747 15.1391C10.1318 16.6508 8.67162 18.7852 7.9685 20.9789C6.66459 25.0633 8.37475 31.4836 8.39115 31.5422C8.43108 31.6916 8.44069 31.8475 8.41941 32.0007C8.39813 32.1539 8.34639 32.3013 8.26724 32.4342C8.18809 32.5671 8.08314 32.6827 7.95857 32.7744C7.834 32.8661 7.69234 32.9319 7.54193 32.968C7.23808 33.0488 6.91466 33.0073 6.64099 32.8525C6.36732 32.6977 6.16517 32.4419 6.07787 32.1398C5.99975 31.8469 4.17318 24.9992 5.67943 20.2789C7.32006 15.1641 12.3833 10.0078 20.0021 10.0078C23.5232 10.0078 26.8497 11.2047 29.6263 13.4648C31.7763 15.2227 33.5326 17.5836 34.4513 19.9437C35.6193 22.957 35.306 26.3391 33.6552 28.5484C32.5552 30.0219 30.9888 30.7922 29.2537 30.7086C24.7333 30.482 23.9208 27.3266 23.3287 25.025C22.7193 22.6641 22.3294 21.5258 20.0021 21.5258C18.724 21.5258 17.8263 21.8773 17.2677 22.6055C16.506 23.6016 16.4466 25.1586 16.531 26.2883C16.5864 27.0753 16.7199 27.855 16.9294 28.6156C17.1154 29.0844 19.5365 35.0219 25.3349 36.4586C25.4848 36.4941 25.6261 36.559 25.7507 36.6496C25.8752 36.7402 25.9805 36.8546 26.0605 36.9863C26.1404 37.1179 26.1935 37.2641 26.2164 37.4164C26.2394 37.5687 26.2319 37.7241 26.1943 37.8734C26.1235 38.1256 25.9722 38.3477 25.7634 38.5058C25.5547 38.6639 25.2999 38.7494 25.038 38.7492Z" fill="#1D1B1B"/>
<path d="M15.7276 38.2148C15.565 38.2152 15.404 38.1828 15.2542 38.1196C15.1044 38.0563 14.9689 37.9636 14.8557 37.8469C11.9526 34.8 10.3104 31.393 9.6924 27.1328V27.1102C9.34553 24.2898 9.85334 20.2969 12.3416 17.5516C14.1783 15.5258 16.7604 14.4961 20.0026 14.4961C23.8369 14.4961 26.8502 16.2789 28.7291 19.6437C30.0924 22.0883 30.3627 24.5242 30.3697 24.6242C30.384 24.7784 30.3678 24.9339 30.3219 25.0818C30.276 25.2297 30.2014 25.3671 30.1023 25.4861C30.0033 25.6051 29.8817 25.7034 29.7446 25.7754C29.6075 25.8473 29.4576 25.8915 29.3033 25.9055C28.9922 25.9392 28.6802 25.8493 28.4348 25.655C28.1894 25.4608 28.0302 25.1778 27.9916 24.8672C27.7858 23.4056 27.3129 21.9943 26.5963 20.7039C25.1401 18.1344 22.9244 16.8281 19.994 16.8281C17.4627 16.8281 15.4822 17.5898 14.1197 19.0938C12.1557 21.2617 11.776 24.6016 12.0455 26.8109C12.5869 30.5781 14.0346 33.575 16.5908 36.2531C16.6975 36.3641 16.7808 36.4954 16.8357 36.6392C16.8907 36.7831 16.9161 36.9365 16.9106 37.0903C16.905 37.2442 16.8686 37.3953 16.8035 37.5348C16.7384 37.6743 16.6459 37.7993 16.5315 37.9023C16.3112 38.102 16.0249 38.2133 15.7276 38.2148Z" fill="#1D1B1B"/>
<path d="M29.1008 34.8579C26.5617 34.8579 24.4031 34.1548 22.6758 32.7571C19.2055 29.961 18.8164 25.4071 18.7992 25.2149C18.7748 24.8994 18.8766 24.5872 19.0824 24.3468C19.2882 24.1065 19.581 23.9577 19.8965 23.9333C20.2119 23.9088 20.5242 24.0107 20.7646 24.2165C21.0049 24.4222 21.1537 24.7151 21.1781 25.0305C21.1867 25.0977 21.5336 28.8227 24.2086 30.968C25.7914 32.2321 27.907 32.7337 30.514 32.4407C30.8256 32.4029 31.1395 32.49 31.3871 32.683C31.6346 32.8759 31.7957 33.159 31.8351 33.4704C31.8522 33.6242 31.8385 33.7799 31.7947 33.9283C31.751 34.0768 31.6781 34.215 31.5804 34.335C31.4826 34.455 31.362 34.5544 31.2254 34.6272C31.0889 34.7001 30.9392 34.7451 30.7851 34.7595C30.2261 34.8247 29.6637 34.8576 29.1008 34.8579Z" fill="#1D1B1B"/>
<path d="M31.1072 3.81172C30.1166 3.16719 26.6041 1.25 19.9994 1.25C13.0666 1.25 9.54551 3.36797 8.7666 3.90625C8.71516 3.93783 8.667 3.97447 8.62285 4.01562C8.61819 4.02013 8.61212 4.02289 8.60566 4.02344C8.48128 4.13204 8.38148 4.2659 8.31291 4.41611C8.24434 4.56631 8.20858 4.72941 8.20801 4.89453C8.21014 5.04931 8.2428 5.20215 8.30411 5.34428C8.36542 5.48642 8.45417 5.61506 8.56529 5.72284C8.6764 5.83061 8.80769 5.9154 8.95163 5.97234C9.09557 6.02929 9.24933 6.05727 9.4041 6.05469C9.65217 6.05452 9.89426 5.97846 10.0979 5.83672C10.1314 5.81172 13.1619 3.58516 20.0018 3.58516C26.8416 3.58516 29.8885 5.80391 29.9213 5.82031C30.1293 5.97456 30.3819 6.05683 30.6408 6.05469C30.7957 6.05706 30.9496 6.02882 31.0935 5.97159C31.2375 5.91436 31.3687 5.82926 31.4797 5.72117C31.5907 5.61309 31.6793 5.48415 31.7403 5.34175C31.8013 5.19936 31.8336 5.04632 31.8354 4.89141C31.8354 4.65937 31.7661 4.4326 31.6364 4.24022C31.5067 4.04784 31.3224 3.89862 31.1072 3.81172Z" fill="#1D1B1B"/>
</svg>
