<svg width="40" height="40" viewBox="0 0 40 40" fill="none" xmlns="http://www.w3.org/2000/svg">
<path d="M33.7501 34.9998C33.5859 35.0001 33.4233 34.9679 33.2716 34.905C33.12 34.8421 32.9823 34.7498 32.8665 34.6334L5.36648 7.13343C5.14196 6.8971 5.01863 6.58241 5.02281 6.25646C5.02698 5.93051 5.15832 5.61908 5.38882 5.38858C5.61932 5.15808 5.93075 5.02674 6.2567 5.02256C6.58265 5.01839 6.89734 5.14171 7.13367 5.36624L34.6336 32.8662C34.8083 33.0411 34.9273 33.2637 34.9755 33.5061C35.0237 33.7485 34.9989 33.9998 34.9044 34.2281C34.8098 34.4564 34.6497 34.6516 34.4442 34.789C34.2388 34.9263 33.9972 34.9997 33.7501 34.9998Z" fill="white"/>
<path d="M22.9953 6.58444L21.2703 16.0251C21.2283 16.2542 21.2511 16.4906 21.3363 16.7075C21.4215 16.9243 21.5656 17.1131 21.7523 17.2524C21.9773 17.4167 22.2495 17.5036 22.5281 17.5001H29.8812L26.8836 21.2048C26.8351 21.2647 26.8105 21.3405 26.8146 21.4175C26.8186 21.4946 26.851 21.5674 26.9055 21.6219L28.2391 22.9555C28.27 22.9865 28.3072 23.0107 28.3481 23.0264C28.389 23.0421 28.4327 23.0491 28.4765 23.0468C28.5202 23.0445 28.563 23.0331 28.6021 23.0132C28.6411 22.9933 28.6755 22.9654 28.7031 22.9313L33.4531 17.0594C33.5808 16.9056 33.6706 16.724 33.7154 16.5292C33.7602 16.3343 33.7586 16.1317 33.7109 15.9376C33.6416 15.6691 33.4851 15.4314 33.2658 15.2617C33.0466 15.092 32.7772 14.9999 32.5 15.0001H23.9992L26.2031 2.93991C26.207 2.91648 26.2109 2.89382 26.2133 2.87038C26.2531 2.55766 26.1892 2.24052 26.0315 1.96755C25.8739 1.69457 25.6311 1.48081 25.3403 1.35901C25.0495 1.23721 24.7269 1.21408 24.4217 1.29318C24.1166 1.37228 23.8457 1.54924 23.6508 1.79695L16.4179 10.7391C16.3692 10.7992 16.3445 10.8751 16.3486 10.9523C16.3526 11.0295 16.3851 11.1025 16.4398 11.1571L17.7734 12.4899C17.8044 12.5209 17.8415 12.5451 17.8824 12.5608C17.9233 12.5765 17.9671 12.5835 18.0108 12.5812C18.0546 12.5789 18.0974 12.5674 18.1364 12.5475C18.1755 12.5276 18.2099 12.4998 18.2375 12.4657L22.9953 6.58444Z" fill="white"/>
<path d="M17.0141 33.4038L18.7329 23.9733C18.7746 23.7441 18.7514 23.5078 18.666 23.2911C18.5805 23.0743 18.4362 22.8858 18.2493 22.7467C18.0243 22.5832 17.7525 22.4966 17.4743 22.4999H10.1227L13.1196 18.7952C13.1681 18.7352 13.1927 18.6594 13.1886 18.5824C13.1846 18.5054 13.1522 18.4326 13.0977 18.378L11.7641 17.0444C11.7332 17.0135 11.6961 16.9895 11.6553 16.9738C11.6144 16.9582 11.5708 16.9513 11.5271 16.9536C11.4835 16.9558 11.4408 16.9673 11.4018 16.9871C11.3628 17.0069 11.3284 17.0347 11.3009 17.0686L6.54695 22.9405C6.41928 23.0943 6.32946 23.2759 6.28469 23.4708C6.23991 23.6656 6.24144 23.8682 6.28914 24.0624C6.35844 24.3308 6.51502 24.5686 6.73423 24.7383C6.95344 24.908 7.22285 25 7.50007 24.9999H16.0024L13.8079 37.0592V37.0678C13.7537 37.3821 13.8058 37.7054 13.9558 37.9868C14.1058 38.2682 14.3453 38.4916 14.6364 38.6218C14.9276 38.7519 15.2537 38.7814 15.5635 38.7056C15.8732 38.6297 16.1489 38.4529 16.347 38.203L23.5821 29.2608C23.6308 29.2008 23.6555 29.1248 23.6515 29.0476C23.6475 28.9704 23.6149 28.8975 23.5603 28.8428L22.2267 27.51C22.1957 27.479 22.1586 27.4549 22.1176 27.4391C22.0767 27.4234 22.033 27.4165 21.9892 27.4187C21.9455 27.421 21.9027 27.4325 21.8636 27.4524C21.8246 27.4723 21.7902 27.5002 21.7626 27.5342L17.0141 33.4038Z" fill="white"/>
</svg>
