<svg width="26" height="36" viewBox="0 0 26 36" fill="none" xmlns="http://www.w3.org/2000/svg">
<path d="M17.6305 0.578126L0.5 21.75H10.5L8.03828 35.2836C8.0336 35.3101 8.03479 35.3374 8.04179 35.3634C8.04878 35.3895 8.0614 35.4137 8.07876 35.4343C8.09611 35.4549 8.11778 35.4715 8.14224 35.4829C8.1667 35.4942 8.19335 35.5001 8.22031 35.5C8.249 35.5 8.27729 35.4932 8.30292 35.4804C8.32856 35.4675 8.35083 35.4488 8.36797 35.4258L25.5 14.25H15.5L17.9734 0.714845C17.9768 0.687879 17.9743 0.660515 17.9662 0.63457C17.9582 0.608625 17.9447 0.584696 17.9266 0.564372C17.9086 0.544049 17.8865 0.527797 17.8617 0.516698C17.8369 0.505599 17.81 0.499908 17.7828 0.500001C17.7531 0.500119 17.7238 0.507256 17.6973 0.520831C17.6708 0.534406 17.6479 0.554036 17.6305 0.578126Z" fill="white"/>
</svg>
