<svg width="24" height="24" viewBox="0 0 24 24" fill="none" xmlns="http://www.w3.org/2000/svg">
<path d="M21.4424 11.6411C20.6209 7.48236 19.4026 4.82952 17.4499 4.18306C17.0717 4.0595 16.6795 3.99787 16.2856 4.00007C15.0851 4.00007 14.1378 4.80002 11.9998 4.80002C9.86187 4.80002 8.91275 4.00007 7.71408 4.00007C7.30369 3.99769 6.89501 4.05927 6.49978 4.18306C4.5444 4.82952 3.33635 7.48486 2.50554 11.6411C1.65732 15.8864 1.81089 19.2407 3.46894 19.8846C4.62967 20.3346 5.66763 19.4041 6.65068 18.0347C7.76676 16.4748 9.14133 15.9948 11.9998 15.9948C14.8584 15.9948 16.1794 16.4748 17.2972 18.0347C18.2794 19.4051 19.3557 20.3241 20.4856 19.8926C22.3169 19.1922 22.291 15.9363 21.4424 11.6411Z" stroke="#1D1B1B" stroke-width="2" stroke-miterlimit="10"/>
<path d="M14 12C14.5523 12 15 11.5523 15 11C15 10.4477 14.5523 10 14 10C13.4477 10 13 10.4477 13 11C13 11.5523 13.4477 12 14 12Z" fill="#1D1B1B"/>
<path d="M16 14C15.8021 14 15.6087 13.9413 15.4442 13.8313C15.2797 13.7213 15.1515 13.565 15.0759 13.3821C15.0003 13.1992 14.9806 12.998 15.0194 12.804C15.0582 12.6099 15.1537 12.4318 15.2938 12.292C15.4339 12.1523 15.6123 12.0572 15.8064 12.0189C16.0006 11.9806 16.2017 12.0008 16.3844 12.0768C16.5671 12.1529 16.7231 12.2815 16.8327 12.4463C16.9423 12.611 17.0005 12.8046 17 13.0025C16.9993 13.2673 16.8937 13.521 16.7062 13.708C16.5188 13.895 16.2648 14 16 14Z" fill="#1D1B1B"/>
<path d="M16 10C16.5523 10 17 9.55228 17 9C17 8.44772 16.5523 8 16 8C15.4477 8 15 8.44772 15 9C15 9.55228 15.4477 10 16 10Z" fill="#1D1B1B"/>
<path d="M18 12C18.5523 12 19 11.5523 19 11C19 10.4477 18.5523 10 18 10C17.4477 10 17 10.4477 17 11C17 11.5523 17.4477 12 18 12Z" fill="#1D1B1B"/>
<path d="M8 9V13V9Z" fill="#1D1B1B"/>
<path d="M8 9V13" stroke="#1D1B1B" stroke-width="2" stroke-linecap="round" stroke-linejoin="round"/>
<path d="M10 11H6H10Z" fill="#1D1B1B"/>
<path d="M10 11H6" stroke="#1D1B1B" stroke-width="2" stroke-linecap="round" stroke-linejoin="round"/>
</svg>
