<svg width="28" height="28" viewBox="0 0 28 28" fill="none" xmlns="http://www.w3.org/2000/svg">
<path d="M4.375 22.75C4.375 23.6783 4.74375 24.5685 5.40013 25.2249C6.0565 25.8813 6.94674 26.25 7.875 26.25H12.9062C12.9643 26.25 13.0199 26.227 13.0609 26.1859C13.102 26.1449 13.125 26.0893 13.125 26.0312V15.9688C13.125 15.9107 13.102 15.8551 13.0609 15.8141C13.0199 15.773 12.9643 15.75 12.9062 15.75H4.8125C4.69647 15.75 4.58519 15.7961 4.50314 15.8781C4.42109 15.9602 4.375 16.0715 4.375 16.1875V22.75Z" fill="#FFDB47"/>
<path d="M13.125 13.7813V7.87503H14.875V13.7813C14.875 13.8393 14.898 13.8949 14.9391 13.936C14.9801 13.977 15.0357 14 15.0938 14H22.75C23.0481 14 23.344 13.9492 23.625 13.8496C24.1363 13.6681 24.579 13.3328 24.8923 12.8898C25.2056 12.4467 25.3742 11.9177 25.375 11.375V10.5C25.375 9.80384 25.0984 9.13616 24.6062 8.64388C24.1139 8.15159 23.4462 7.87503 22.75 7.87503H20.533C20.5139 7.87473 20.4953 7.86945 20.4789 7.85973C20.4625 7.85001 20.4489 7.83617 20.4396 7.81959C20.4302 7.80302 20.4253 7.78428 20.4253 7.76522C20.4254 7.74617 20.4305 7.72747 20.44 7.71097C20.9463 6.85614 21.1108 5.84151 20.9004 4.87052C20.69 3.89953 20.1203 3.04397 19.3055 2.47539C18.4908 1.90681 17.4912 1.66725 16.5073 1.80474C15.5233 1.94224 14.6277 2.44662 14 3.21675C13.3723 2.44662 12.4767 1.94224 11.4927 1.80474C10.5088 1.66725 9.50921 1.90681 8.69446 2.47539C7.87972 3.04397 7.31003 3.89953 7.09964 4.87052C6.88924 5.84151 7.05368 6.85614 7.56 7.71097C7.56953 7.72747 7.57458 7.74617 7.57466 7.76522C7.57474 7.78428 7.56984 7.80302 7.56044 7.81959C7.55105 7.83617 7.53749 7.85001 7.52111 7.85973C7.50472 7.86945 7.48608 7.87473 7.46703 7.87503H5.25C4.55381 7.87503 3.88613 8.15159 3.39384 8.64388C2.90156 9.13616 2.625 9.80384 2.625 10.5V11.375C2.62577 11.9177 2.79437 12.4467 3.10767 12.8898C3.42098 13.3328 3.86365 13.6681 4.375 13.8496C4.65599 13.9492 4.9519 14 5.25 14H12.9062C12.9643 14 13.0199 13.977 13.0609 13.936C13.102 13.8949 13.125 13.8393 13.125 13.7813ZM14.875 5.68753C14.875 5.25489 15.0033 4.83196 15.2437 4.47222C15.484 4.11249 15.8257 3.83211 16.2254 3.66655C16.6251 3.50098 17.0649 3.45766 17.4893 3.54207C17.9136 3.62647 18.3034 3.83481 18.6093 4.14074C18.9152 4.44666 19.1236 4.83644 19.208 5.26077C19.2924 5.68511 19.2491 6.12494 19.0835 6.52465C18.9179 6.92437 18.6375 7.26601 18.2778 7.50637C17.9181 7.74674 17.4951 7.87503 17.0625 7.87503H14.875V5.68753ZM10.7811 3.5055C11.0808 3.48402 11.3817 3.5245 11.665 3.62443C11.9484 3.72436 12.2081 3.88158 12.428 4.08631C12.6479 4.29103 12.8233 4.53886 12.9432 4.81435C13.0631 5.08984 13.125 5.38708 13.125 5.68753V7.87503H10.9375C10.3719 7.87358 9.82878 7.65308 9.42222 7.25981C9.01567 6.86654 8.77725 6.33108 8.75701 5.7658C8.73678 5.20052 8.93629 4.64938 9.31369 4.22805C9.69108 3.80671 10.217 3.54794 10.7811 3.50605V3.5055Z" fill="#FFDB47"/>
<path d="M15.0938 26.25H20.125C21.0533 26.25 21.9435 25.8813 22.5999 25.2249C23.2563 24.5685 23.625 23.6783 23.625 22.75V16.1875C23.625 16.0715 23.5789 15.9602 23.4969 15.8781C23.4148 15.7961 23.3035 15.75 23.1875 15.75H15.0938C15.0357 15.75 14.9801 15.773 14.9391 15.8141C14.898 15.8551 14.875 15.9107 14.875 15.9688V26.0312C14.875 26.0893 14.898 26.1449 14.9391 26.1859C14.9801 26.227 15.0357 26.25 15.0938 26.25Z" fill="#FFDB47"/>
</svg>
