<svg width="28" height="28" viewBox="0 0 28 28" fill="none" xmlns="http://www.w3.org/2000/svg">
<path d="M14 5.6875V8.74999H17.0625C17.6682 8.74999 18.2603 8.57038 18.7639 8.23387C19.2676 7.89736 19.6601 7.41906 19.8919 6.85946C20.1237 6.29987 20.1843 5.6841 20.0661 5.09003C19.948 4.49597 19.6563 3.95028 19.228 3.52199C18.7997 3.09369 18.254 2.80201 17.66 2.68385C17.0659 2.56568 16.4501 2.62633 15.8905 2.85812C15.3309 3.08991 14.8526 3.48244 14.5161 3.98607C14.1796 4.48969 14 5.08179 14 5.6875V5.6875Z" stroke="white" stroke-width="2" stroke-miterlimit="10" stroke-linecap="round"/>
<path d="M14 5.6875C14 6.53297 14 8.74999 14 8.74999H10.9375C10.3318 8.74999 9.73969 8.57038 9.23607 8.23387C8.73244 7.89736 8.33991 7.41906 8.10812 6.85946C7.87633 6.29987 7.81568 5.6841 7.93385 5.09003C8.05201 4.49597 8.34369 3.95028 8.77199 3.52199C9.20029 3.09369 9.74597 2.80201 10.34 2.68385C10.9341 2.56568 11.5499 2.62633 12.1095 2.85812C12.6691 3.08991 13.1474 3.48244 13.4839 3.98607C13.8204 4.48969 14 5.08179 14 5.6875V5.6875Z" stroke="white" stroke-width="2" stroke-miterlimit="10" stroke-linecap="round"/>
<path d="M22.75 8.75H5.25C4.2835 8.75 3.5 9.5335 3.5 10.5V13.125C3.5 14.0915 4.2835 14.875 5.25 14.875H22.75C23.7165 14.875 24.5 14.0915 24.5 13.125V10.5C24.5 9.5335 23.7165 8.75 22.75 8.75Z" stroke="white" stroke-width="2" stroke-linecap="round" stroke-linejoin="round"/>
<path d="M22.75 14.875V22.75C22.75 23.4462 22.4734 24.1139 21.9812 24.6062C21.4889 25.0984 20.8212 25.375 20.125 25.375H7.875C7.17881 25.375 6.51113 25.0984 6.01884 24.6062C5.52656 24.1139 5.25 23.4462 5.25 22.75V14.875" stroke="white" stroke-width="2" stroke-linecap="round" stroke-linejoin="round"/>
<path d="M14 8.75V25.375" stroke="white" stroke-width="2" stroke-linecap="round" stroke-linejoin="round"/>
</svg>
