<svg width="100" height="100" viewBox="0 0 100 100" fill="none" xmlns="http://www.w3.org/2000/svg">
<path d="M35.9375 50C38.5263 50 40.625 47.9013 40.625 45.3125C40.625 42.7237 38.5263 40.625 35.9375 40.625C33.3487 40.625 31.25 42.7237 31.25 45.3125C31.25 47.9013 33.3487 50 35.9375 50Z" fill="#1D1B1B"/>
<path d="M50.0099 75.0001C41.1388 75.0001 33.6778 69.2326 31.3165 61.3615C31.2505 61.1273 31.24 60.8808 31.2861 60.6419C31.3321 60.4029 31.4334 60.178 31.5817 59.9851C31.7301 59.7921 31.9214 59.6365 32.1406 59.5306C32.3597 59.4248 32.6005 59.3715 32.8438 59.3752H67.1583C67.4017 59.3715 67.6425 59.4248 67.8616 59.5306C68.0808 59.6365 68.2721 59.7921 68.4205 59.9851C68.5688 60.178 68.67 60.4029 68.7161 60.6419C68.7621 60.8808 68.7517 61.1273 68.6857 61.3615C66.3439 69.2326 58.881 75.0001 50.0099 75.0001Z" fill="#1D1B1B"/>
<path d="M64.0625 50C66.6513 50 68.75 47.9013 68.75 45.3125C68.75 42.7237 66.6513 40.625 64.0625 40.625C61.4737 40.625 59.375 42.7237 59.375 45.3125C59.375 47.9013 61.4737 50 64.0625 50Z" fill="#1D1B1B"/>
<path d="M50 90.625C72.4366 90.625 90.625 72.4366 90.625 50C90.625 27.5634 72.4366 9.375 50 9.375C27.5634 9.375 9.375 27.5634 9.375 50C9.375 72.4366 27.5634 90.625 50 90.625Z" stroke="#1D1B1B" stroke-width="2" stroke-miterlimit="10"/>
</svg>
