<svg width="100" height="100" viewBox="0 0 100 100" fill="none" xmlns="http://www.w3.org/2000/svg">
<path d="M50 9.375C27.5996 9.375 9.375 27.5996 9.375 50C9.375 72.4004 27.5996 90.625 50 90.625C72.4004 90.625 90.625 72.4004 90.625 50C90.625 27.5996 72.4004 9.375 50 9.375ZM64.5879 58.7539C62.7559 60.9883 59.4316 64.5606 51.7559 69.7715C51.2382 70.1259 50.6254 70.3156 49.998 70.3156C49.3707 70.3156 48.7579 70.1259 48.2402 69.7715C40.5645 64.5606 37.2402 60.9824 35.4082 58.7539C31.502 53.9941 29.6309 49.1055 29.6855 43.8125C29.7461 37.7461 34.6113 32.8105 40.5312 32.8105C44.5156 32.8105 47.3672 34.8867 49.1445 36.7969C49.2541 36.9127 49.3861 37.005 49.5325 37.0681C49.6789 37.1312 49.8367 37.1637 49.9961 37.1637C50.1555 37.1637 50.3133 37.1312 50.4597 37.0681C50.6061 37.005 50.7381 36.9127 50.8477 36.7969C52.627 34.8867 55.4766 32.8105 59.4609 32.8105C65.3809 32.8105 70.2461 37.7461 70.3066 43.8125C70.3652 49.1055 68.4922 53.9941 64.5879 58.7539Z" fill="black"/>
</svg>
