<svg width="100" height="100" viewBox="0 0 100 100" fill="none" xmlns="http://www.w3.org/2000/svg">
<path d="M50 12.5C29.2969 12.5 12.5 29.2969 12.5 50C12.5 70.7031 29.2969 87.5 50 87.5C70.7031 87.5 87.5 70.7031 87.5 50C87.5 29.2969 70.7031 12.5 50 12.5ZM48.8281 71.875C48.0555 71.875 47.3003 71.6459 46.6579 71.2167C46.0155 70.7875 45.5149 70.1774 45.2192 69.4636C44.9236 68.7498 44.8462 67.9644 44.9969 67.2067C45.1477 66.4489 45.5197 65.7529 46.066 65.2066C46.6123 64.6603 47.3083 64.2883 48.0661 64.1376C48.8238 63.9868 49.6092 64.0642 50.323 64.3598C51.0368 64.6555 51.6468 65.1562 52.0761 65.7985C52.5053 66.4409 52.7344 67.1962 52.7344 67.9688C52.7344 69.0048 52.3228 69.9983 51.5903 70.7309C50.8577 71.4635 49.8641 71.875 48.8281 71.875ZM55.3594 51.9531C52.1934 54.0781 51.7578 56.0254 51.7578 57.8125C51.7578 58.5377 51.4697 59.2332 50.9569 59.746C50.4441 60.2588 49.7486 60.5469 49.0234 60.5469C48.2982 60.5469 47.6027 60.2588 47.0899 59.746C46.5771 59.2332 46.2891 58.5377 46.2891 57.8125C46.2891 53.5332 48.2578 50.1309 52.3086 47.4102C56.0742 44.8828 58.2031 43.2813 58.2031 39.7598C58.2031 37.3652 56.8359 35.5469 54.0059 34.2012C53.3398 33.8848 51.8574 33.5762 50.0332 33.5977C47.7441 33.627 45.9668 34.1738 44.5977 35.2754C42.0156 37.3535 41.7969 39.6152 41.7969 39.6484C41.7796 40.0075 41.6917 40.3597 41.5383 40.6848C41.3849 41.0099 41.1689 41.3017 40.9028 41.5433C40.6366 41.785 40.3255 41.9719 39.9871 42.0933C39.6487 42.2147 39.2897 42.2683 38.9307 42.251C38.5716 42.2337 38.2194 42.1458 37.8943 41.9924C37.5692 41.839 37.2775 41.623 37.0358 41.3569C36.7941 41.0907 36.6072 40.7796 36.4858 40.4412C36.3644 40.1028 36.3108 39.7438 36.3281 39.3848C36.3496 38.9102 36.6797 34.6348 41.166 31.0254C43.4922 29.1543 46.4512 28.1816 49.9551 28.1387C52.4355 28.1094 54.7656 28.5293 56.3457 29.2754C61.0742 31.5117 63.6719 35.2402 63.6719 39.7598C63.6719 46.3672 59.2559 49.334 55.3594 51.9531Z" fill="#1D1B1B"/>
</svg>
