<svg width="44" height="37" viewBox="0 0 44 37" fill="none" xmlns="http://www.w3.org/2000/svg">
<path d="M3.78396 2.83516L12.4525 10.7787L20.1756 0.875367C20.3918 0.598506 20.6653 0.376023 20.9755 0.224486C21.2858 0.072949 21.6249 -0.00373666 21.9676 0.000139988C22.3103 0.00401664 22.6477 0.0883561 22.9547 0.246877C23.2617 0.405397 23.5305 0.634014 23.7409 0.915702L31.1109 10.7763L40.0596 2.7189C40.411 2.40313 40.8467 2.20667 41.3083 2.15583C41.7698 2.10499 42.2353 2.20219 42.6424 2.43442C43.0494 2.66665 43.3787 3.02282 43.586 3.45528C43.7934 3.88774 43.869 4.37584 43.8027 4.85427L40.3854 29.4039H3.49463L0.024944 4.96578C-0.0439777 4.48469 0.0307418 3.99317 0.238981 3.55779C0.447221 3.1224 0.778918 2.76419 1.18915 2.53167C1.59938 2.29915 2.06831 2.20356 2.53244 2.25785C2.99658 2.31213 3.43347 2.51367 3.78396 2.83516ZM3.67233 31.7765H40.1234V34.1491C40.1234 34.7784 39.8834 35.3819 39.4561 35.8268C39.0289 36.2718 38.4494 36.5217 37.8452 36.5217H5.95052C5.34631 36.5217 4.76684 36.2718 4.3396 35.8268C3.91235 35.3819 3.67233 34.7784 3.67233 34.1491V31.7765Z" fill="#72BD82"/>
</svg>
