<svg width="24" height="24" viewBox="0 0 24 24" fill="none" xmlns="http://www.w3.org/2000/svg">
<path d="M5.3812 6.03506L8.5459 8.93509L11.3654 5.31958C11.4444 5.2185 11.5442 5.13728 11.6575 5.08196C11.7708 5.02663 11.8946 4.99864 12.0197 5.00005C12.1448 5.00147 12.268 5.03226 12.3801 5.09013C12.4921 5.148 12.5903 5.23147 12.6671 5.3343L15.3577 8.93422L18.6247 5.99261C18.753 5.87733 18.912 5.80561 19.0806 5.78705C19.2491 5.76849 19.419 5.80397 19.5676 5.88876C19.7162 5.97354 19.8364 6.10357 19.9121 6.26145C19.9878 6.41933 20.0154 6.59753 19.9912 6.77219L18.7436 15.7347H5.27557L4.00886 6.8129C3.9837 6.63727 4.01098 6.45783 4.087 6.29888C4.16303 6.13993 4.28412 6.00915 4.43389 5.92426C4.58366 5.83937 4.75485 5.80448 4.9243 5.82429C5.09374 5.84411 5.25325 5.91769 5.3812 6.03506ZM5.34045 16.6009H18.648V17.4671C18.648 17.6969 18.5604 17.9172 18.4044 18.0796C18.2484 18.2421 18.0369 18.3333 17.8163 18.3333H6.17217C5.95158 18.3333 5.74003 18.2421 5.58405 18.0796C5.42808 17.9172 5.34045 17.6969 5.34045 17.4671V16.6009Z" fill="#97AEFA"/>
</svg>
