<svg width="40" height="40" viewBox="0 0 40 40" fill="none" xmlns="http://www.w3.org/2000/svg">
<circle cx="20" cy="20" r="20" fill="#219653"/>
<path d="M28 17.1163V11.9C28.0008 11.6505 27.9523 11.4034 27.8573 11.1728C27.7624 10.9422 27.6228 10.7326 27.4466 10.5561C27.2704 10.3796 27.0611 10.2396 26.8307 10.1441C26.6002 10.0487 26.3532 9.99972 26.1038 10H20.8902C20.5484 10.0007 20.2206 10.1362 19.978 10.377L9.55509 20.7966C9.19961 21.1532 9 21.6362 9 22.1398C9 22.6433 9.19961 23.1263 9.55509 23.4829L14.5172 28.4448C14.8737 28.8003 15.3566 29 15.8601 29C16.3636 29 16.8465 28.8003 17.203 28.4448L27.623 18.0286C27.8639 17.786 27.9994 17.4582 28 17.1163ZM23.9286 15.4284C23.6601 15.4284 23.3977 15.3488 23.1746 15.1997C22.9514 15.0506 22.7774 14.8386 22.6747 14.5907C22.572 14.3427 22.5451 14.0698 22.5975 13.8066C22.6498 13.5433 22.7791 13.3015 22.9689 13.1117C23.1587 12.9219 23.4005 12.7927 23.6638 12.7403C23.927 12.6879 24.1999 12.7148 24.4479 12.8175C24.6959 12.9202 24.9079 13.0942 25.057 13.3174C25.2061 13.5405 25.2857 13.8029 25.2857 14.0713C25.2857 14.4313 25.1427 14.7764 24.8882 15.0309C24.6337 15.2854 24.2885 15.4284 23.9286 15.4284Z" fill="white"/>
<path d="M30.3026 12C30.1177 12 29.9403 12.0702 29.8096 12.1951C29.6788 12.3201 29.6053 12.4895 29.6053 12.6662V17.9697L18.217 28.8508C18.1495 28.912 18.0956 28.9856 18.0583 29.0671C18.0211 29.1485 18.0012 29.2363 18.0001 29.3253C17.9989 29.4142 18.0163 29.5024 18.0514 29.5848C18.0865 29.6672 18.1384 29.742 18.2042 29.8049C18.27 29.8677 18.3484 29.9174 18.4346 29.9509C18.5208 29.9844 18.6132 30.0011 18.7062 29.9999C18.7993 29.9988 18.8912 29.9799 18.9765 29.9443C19.0618 29.9087 19.1387 29.8571 19.2028 29.7927L30.6212 18.8833C30.7427 18.7667 30.8387 18.6282 30.9037 18.4759C30.9687 18.3236 31.0014 18.1605 31 17.996V12.6662C31 12.4895 30.9265 12.3201 30.7957 12.1951C30.6649 12.0702 30.4876 12 30.3026 12Z" fill="white"/>
</svg>
