<svg width="40" height="40" viewBox="0 0 40 40" fill="none" xmlns="http://www.w3.org/2000/svg">
<circle cx="20" cy="20" r="20" fill="#2F80ED"/>
<path d="M11.8981 25.9615C11.9558 25.751 11.8294 25.4582 11.7087 25.2471C11.6713 25.1841 11.6305 25.1231 11.5866 25.0644C10.5516 23.4948 9.99998 21.6561 10.0001 19.776C9.98274 14.3793 14.4577 10 19.9914 10C24.8173 10 28.8462 13.3433 29.787 17.7813C29.9282 18.4392 29.9996 19.1102 30 19.7832C30 25.1875 25.6976 29.6356 20.164 29.6356C19.2837 29.6356 18.0967 29.4144 17.4491 29.2332C16.8015 29.0519 16.1548 28.8115 15.988 28.7471C15.8172 28.6815 15.6359 28.6478 15.4529 28.6476C15.2534 28.6469 15.0559 28.6866 14.8722 28.7644L11.6106 29.9413C11.5394 29.9721 11.4638 29.9919 11.3866 30C11.3255 29.9998 11.2651 29.9875 11.2088 29.9638C11.1525 29.9401 11.1014 29.9055 11.0586 29.862C11.0158 29.8184 10.982 29.7668 10.9592 29.7101C10.9365 29.6534 10.9252 29.5928 10.926 29.5317C10.93 29.4781 10.9397 29.4251 10.9549 29.3736L11.8981 25.9615Z" fill="white"/>
<path d="M16 21C16.5523 21 17 20.5523 17 20C17 19.4477 16.5523 19 16 19C15.4477 19 15 19.4477 15 20C15 20.5523 15.4477 21 16 21Z" fill="#2F80ED"/>
<path d="M20 21C20.5523 21 21 20.5523 21 20C21 19.4477 20.5523 19 20 19C19.4477 19 19 19.4477 19 20C19 20.5523 19.4477 21 20 21Z" fill="#2F80ED"/>
<path d="M24 21C24.5523 21 25 20.5523 25 20C25 19.4477 24.5523 19 24 19C23.4477 19 23 19.4477 23 20C23 20.5523 23.4477 21 24 21Z" fill="#2F80ED"/>
</svg>
