<svg width="40" height="40" viewBox="0 0 40 40" fill="none" xmlns="http://www.w3.org/2000/svg">
<circle cx="20" cy="20" r="20" fill="#F2C94C"/>
<path d="M29.8946 10.271C29.8865 10.2315 29.8672 10.1952 29.8391 10.1663C29.811 10.1374 29.7752 10.1171 29.736 10.1079C27.1215 9.4679 21.0819 11.7482 17.8063 15.0241C17.2225 15.6035 16.6902 16.2327 16.2154 16.9045C15.2058 16.8131 14.1961 16.8901 13.3365 17.2654C10.909 18.3336 10.2027 21.1235 10.0056 22.3211C9.99495 22.3867 9.99951 22.4539 10.019 22.5175C10.0384 22.5811 10.0722 22.6393 10.1178 22.6877C10.1633 22.7361 10.2194 22.7734 10.2817 22.7966C10.3439 22.8198 10.4107 22.8283 10.4768 22.8215L14.3745 22.3933C14.3772 22.6875 14.3948 22.9814 14.4274 23.2738C14.4477 23.476 14.5378 23.6647 14.6822 23.8075L16.1914 25.3179C16.3342 25.4625 16.5229 25.5527 16.725 25.5729C17.0155 25.6053 17.3074 25.623 17.5996 25.6258L17.1722 29.5234C17.1655 29.5894 17.1741 29.6562 17.1973 29.7184C17.2205 29.7806 17.2577 29.8366 17.3059 29.8821C17.3542 29.9277 17.4123 29.9615 17.4757 29.9809C17.5392 30.0004 17.6062 30.005 17.6717 29.9945C18.8689 29.802 21.6622 29.0951 22.7233 26.6662C23.0983 25.8048 23.1752 24.7997 23.0887 23.794C23.7619 23.3192 24.3924 22.7865 24.9729 22.2018C28.2605 18.9298 30.5245 13.018 29.8946 10.271ZM22.0507 17.9631C21.7635 17.6758 21.5679 17.3097 21.4887 16.9111C21.4094 16.5125 21.4501 16.0994 21.6054 15.7239C21.7608 15.3485 22.0239 15.0275 22.3616 14.8018C22.6992 14.576 23.0961 14.4555 23.5022 14.4555C23.9082 14.4555 24.3051 14.576 24.6428 14.8018C24.9804 15.0275 25.2435 15.3485 25.3989 15.7239C25.5542 16.0994 25.5949 16.5125 25.5156 16.9111C25.4364 17.3097 25.2408 17.6758 24.9536 17.9631C24.7632 18.1541 24.5369 18.3057 24.2879 18.4091C24.0388 18.5125 23.7718 18.5657 23.5022 18.5657C23.2325 18.5657 22.9655 18.5125 22.7164 18.4091C22.4674 18.3057 22.2411 18.1541 22.0507 17.9631Z" fill="white"/>
<path d="M12.9017 25C12.4863 25.051 12.0999 25.2393 11.8038 25.535C11.0696 26.2717 11 29 11 29C11 29 13.73 28.9304 14.4646 28.1954C14.7615 27.8998 14.9501 27.5127 15 27.0967" fill="white"/>
</svg>
