<svg width="24" height="24" viewBox="0 0 24 24" fill="none" xmlns="http://www.w3.org/2000/svg">
<path d="M12.6091 15.7319C12.4113 15.7466 12.2116 15.7539 12.0101 15.7539C11.7649 15.7539 11.5226 15.7427 11.283 15.7216C10.0981 15.6165 8.9498 15.2566 7.91687 14.6665C6.88395 14.0764 5.99077 13.27 5.29851 12.3025C5.28027 12.2765 5.25573 12.2556 5.22718 12.2416C5.19863 12.2277 5.16702 12.2213 5.13529 12.2229C5.10357 12.2245 5.07279 12.2342 5.04583 12.251C5.01887 12.2678 4.99662 12.2912 4.98116 12.3189L1.60616 18.3846C1.47773 18.6189 1.45757 18.9002 1.59304 19.1289C1.66356 19.2424 1.7618 19.336 1.8785 19.4009C1.9952 19.4659 2.12651 19.5 2.26007 19.5002H5.91632C6.04368 19.4955 6.17 19.5248 6.28222 19.5852C6.39445 19.6456 6.48853 19.7349 6.55476 19.8438L8.36694 22.8752C8.43326 22.9877 8.52736 23.0812 8.64022 23.1469C8.75308 23.2125 8.88092 23.2481 9.01148 23.2502C9.28991 23.2347 9.57819 23.0538 9.69398 22.8002L12.7929 15.9963C12.8063 15.9667 12.8117 15.9342 12.8088 15.9019C12.8058 15.8696 12.7945 15.8386 12.776 15.8119C12.7575 15.7853 12.7324 15.7639 12.7031 15.7499C12.6739 15.7359 12.6415 15.7297 12.6091 15.7319Z" fill="#1D1B1B"/>
<path d="M22.3892 18.369L19.0362 12.3142C19.0207 12.2867 18.9985 12.2636 18.9717 12.2469C18.9449 12.2303 18.9144 12.2207 18.8829 12.219C18.8514 12.2173 18.8199 12.2236 18.7915 12.2373C18.7631 12.251 18.7386 12.2716 18.7203 12.2973C17.7982 13.5892 16.5239 14.5887 15.0495 15.1764C14.8684 15.2477 14.722 15.3863 14.6407 15.5631L12.9129 19.3646C12.8907 19.4132 12.8792 19.4659 12.8792 19.5193C12.8792 19.5727 12.8907 19.6255 12.9129 19.674L14.3318 22.7954C14.4467 23.049 14.7345 23.2342 15.0124 23.2496C15.1431 23.2464 15.2708 23.2097 15.3832 23.1431C15.4956 23.0765 15.5891 22.9821 15.6546 22.869L17.4607 19.8418C17.5962 19.6145 17.8418 19.4982 18.1067 19.4996H21.799C22.1117 19.4996 22.3484 19.3365 22.4553 19.0309C22.4928 18.9224 22.5064 18.807 22.4949 18.6927C22.4835 18.5784 22.4474 18.468 22.3892 18.369Z" fill="#1D1B1B"/>
<path d="M12.0122 9.75C13.2551 9.75 14.2627 8.74264 14.2627 7.5C14.2627 6.25736 13.2551 5.25 12.0122 5.25C10.7693 5.25 9.76172 6.25736 9.76172 7.5C9.76172 8.74264 10.7693 9.75 12.0122 9.75Z" fill="#1D1B1B"/>
<path d="M12.0125 0.75C8.28964 0.75 5.26245 3.77766 5.26245 7.5C5.26245 11.2223 8.29104 14.25 12.0125 14.25C15.7339 14.25 18.7625 11.2219 18.7625 7.5C18.7625 3.77812 15.7348 0.75 12.0125 0.75ZM12.0125 11.25C11.2708 11.25 10.5457 11.0301 9.92906 10.618C9.31238 10.206 8.83173 9.62029 8.5479 8.93506C8.26407 8.24984 8.18981 7.49584 8.33451 6.76841C8.4792 6.04098 8.83635 5.3728 9.3608 4.84835C9.88525 4.3239 10.5534 3.96675 11.2809 3.82206C12.0083 3.67736 12.7623 3.75162 13.4475 4.03545C14.1327 4.31928 14.7184 4.79993 15.1305 5.41661C15.5425 6.0333 15.7625 6.75832 15.7625 7.5C15.7612 8.49418 15.3657 9.44729 14.6627 10.1503C13.9597 10.8533 13.0066 11.2488 12.0125 11.25Z" fill="#333333"/>
</svg>
