<svg width="29" height="28" viewBox="0 0 29 28" fill="none" xmlns="http://www.w3.org/2000/svg">
<path d="M14.8053 18.3537C14.5746 18.3708 14.3416 18.3794 14.1064 18.3794C13.8204 18.3794 13.5377 18.3663 13.2582 18.3416C11.8758 18.2191 10.5361 17.7992 9.33104 17.1107C8.12596 16.4222 7.08392 15.4814 6.27628 14.3527C6.255 14.3224 6.22637 14.2979 6.19307 14.2817C6.15976 14.2655 6.12287 14.2579 6.08586 14.2598C6.04885 14.2618 6.01294 14.273 5.98149 14.2926C5.95003 14.3122 5.92407 14.3395 5.90604 14.3719L1.96854 21.4484C1.8187 21.7219 1.79518 22.05 1.95323 22.3169C2.0355 22.4492 2.15012 22.5584 2.28626 22.6342C2.42241 22.71 2.57562 22.7498 2.73143 22.75H6.99706C7.14565 22.7445 7.29301 22.7788 7.42395 22.8492C7.55488 22.9197 7.66464 23.0238 7.7419 23.1509L9.85612 26.6875C9.93349 26.8187 10.0433 26.9279 10.1749 27.0045C10.3066 27.0811 10.4558 27.1226 10.6081 27.125C10.9329 27.107 11.2692 26.8959 11.4043 26.6L15.0197 18.6621C15.0353 18.6276 15.0417 18.5897 15.0383 18.552C15.0348 18.5143 15.0217 18.4781 15.0001 18.4471C14.9785 18.416 14.9492 18.391 14.915 18.3747C14.8809 18.3583 14.8431 18.3511 14.8053 18.3537Z" fill="#EB5757"/>
<path d="M26.2156 21.4308L22.3038 14.3668C22.2858 14.3348 22.2599 14.3078 22.2286 14.2884C22.1973 14.269 22.1617 14.2578 22.1249 14.2558C22.0882 14.2538 22.0515 14.2612 22.0184 14.2771C21.9852 14.2931 21.9566 14.3172 21.9352 14.3471C20.8595 15.8544 19.3728 17.0204 17.6527 17.706C17.4414 17.7893 17.2706 17.9509 17.1758 18.1572L15.16 22.5924C15.134 22.649 15.1206 22.7105 15.1206 22.7728C15.1206 22.8351 15.134 22.8967 15.16 22.9533L16.8154 26.5949C16.9494 26.8908 17.2852 27.1068 17.6094 27.1249C17.7619 27.1211 17.9108 27.0783 18.042 27.0006C18.1732 26.9228 18.2822 26.8127 18.3587 26.6808L20.4658 23.1491C20.6238 22.8838 20.9104 22.7482 21.2194 22.7499H25.5271C25.8919 22.7499 26.168 22.5596 26.2927 22.203C26.3365 22.0764 26.3524 21.9417 26.339 21.8084C26.3257 21.6751 26.2836 21.5463 26.2156 21.4308Z" fill="#EB5757"/>
<path d="M14.1089 11.375C15.559 11.375 16.7345 10.1997 16.7345 8.75C16.7345 7.30025 15.559 6.125 14.1089 6.125C12.6589 6.125 11.4834 7.30025 11.4834 8.75C11.4834 10.1997 12.6589 11.375 14.1089 11.375Z" fill="#EB5757"/>
<path d="M14.1092 0.875C9.76588 0.875 6.23416 4.40727 6.23416 8.75C6.23416 13.0927 9.76752 16.625 14.1092 16.625C18.4508 16.625 21.9842 13.0922 21.9842 8.75C21.9842 4.40781 18.4519 0.875 14.1092 0.875ZM14.1092 13.125C13.2439 13.125 12.398 12.8684 11.6785 12.3877C10.9591 11.9069 10.3983 11.2237 10.0672 10.4242C9.73606 9.62481 9.64942 8.74515 9.81823 7.89648C9.98704 7.04781 10.4037 6.26826 11.0156 5.65641C11.6274 5.04455 12.407 4.62787 13.2556 4.45906C14.1043 4.29025 14.984 4.37689 15.7834 4.70803C16.5828 5.03916 17.2661 5.59992 17.7468 6.31938C18.2276 7.03885 18.4842 7.88471 18.4842 8.75C18.4827 9.90988 18.0213 11.0218 17.2012 11.842C16.381 12.6622 15.269 13.1236 14.1092 13.125Z" fill="#EB5757"/>
</svg>
