<svg width="80" height="80" viewBox="0 0 80 80" fill="none" xmlns="http://www.w3.org/2000/svg">
<path d="M28.75 40C30.8211 40 32.5 38.3211 32.5 36.25C32.5 34.1789 30.8211 32.5 28.75 32.5C26.6789 32.5 25 34.1789 25 36.25C25 38.3211 26.6789 40 28.75 40Z" fill="#1D1B1B"/>
<path d="M40 45C47.0968 45 53.0656 49.6141 54.9547 55.9109C55.0077 56.099 55.0159 56.2968 54.9787 56.4886C54.9414 56.6804 54.8597 56.8608 54.7402 57.0153C54.6206 57.1698 54.4665 57.2941 54.2902 57.3783C54.1139 57.4625 53.9203 57.5042 53.725 57.5H26.2734C26.0787 57.5029 25.8861 57.4603 25.7108 57.3756C25.5355 57.2909 25.3824 57.1664 25.2637 57.0121C25.145 56.8577 25.0641 56.6778 25.0272 56.4866C24.9904 56.2955 24.9987 56.0983 25.0515 55.9109C26.925 49.6141 32.8953 45 40 45Z" fill="#1D1B1B"/>
<path d="M51.25 40C53.3211 40 55 38.3211 55 36.25C55 34.1789 53.3211 32.5 51.25 32.5C49.1789 32.5 47.5 34.1789 47.5 36.25C47.5 38.3211 49.1789 40 51.25 40Z" fill="#1D1B1B"/>
<path d="M40 72.5C57.9493 72.5 72.5 57.9493 72.5 40C72.5 22.0507 57.9493 7.5 40 7.5C22.0507 7.5 7.5 22.0507 7.5 40C7.5 57.9493 22.0507 72.5 40 72.5Z" stroke="#1D1B1B" stroke-width="2" stroke-miterlimit="10"/>
</svg>
