<svg width="28" height="28" viewBox="0 0 28 28" fill="none" xmlns="http://www.w3.org/2000/svg">
<path d="M25.1856 12.1049C25.5097 11.8826 25.3524 11.375 24.9594 11.375H17.1343C16.9611 11.375 16.8075 11.2634 16.7539 11.0986L14.3804 3.7955C14.2607 3.42702 13.7393 3.42702 13.6196 3.7955L11.2461 11.0986C11.1925 11.2634 11.0389 11.375 10.8657 11.375H3.04064C2.64757 11.375 2.49025 11.8826 2.81443 12.1049L9.15671 16.4539C9.30433 16.5551 9.36673 16.7421 9.30949 16.9117L6.85366 24.1882C6.72909 24.5573 7.15193 24.8686 7.46737 24.64L13.7653 20.0763C13.9053 19.9749 14.0947 19.9749 14.2347 20.0763L20.5326 24.64C20.8481 24.8686 21.2709 24.5573 21.1463 24.1882L18.6905 16.9117C18.6333 16.7421 18.6957 16.5551 18.8433 16.4539L25.1856 12.1049Z" stroke="#979797" stroke-linejoin="round"/>
</svg>
