<svg width="28" height="28" viewBox="0 0 28 28" fill="none" xmlns="http://www.w3.org/2000/svg">
<path d="M21.5468 26.2508C21.3626 26.2516 21.1829 26.1941 21.0332 26.0868L13.9999 20.9877L6.96654 26.0868C6.81627 26.1958 6.63524 26.2541 6.44962 26.2535C6.26399 26.2528 6.08339 26.1931 5.93393 26.083C5.78446 25.9729 5.67387 25.8182 5.61815 25.6411C5.56243 25.4641 5.56446 25.2739 5.62396 25.098L8.36708 16.9731L1.25771 12.0977C1.10372 11.9922 0.987491 11.8403 0.926015 11.664C0.864539 11.4878 0.861035 11.2965 0.916015 11.1181C0.970994 10.9397 1.08158 10.7836 1.2316 10.6725C1.38163 10.5615 1.56324 10.5013 1.7499 10.5008H10.5207L13.1675 2.35513C13.2246 2.17927 13.3358 2.02599 13.4854 1.91727C13.6349 1.80856 13.815 1.75 13.9999 1.75C14.1848 1.75 14.3649 1.80856 14.5144 1.91727C14.664 2.02599 14.7752 2.17927 14.8322 2.35513L17.4791 10.5036H26.2499C26.4368 10.5035 26.6188 10.5632 26.7693 10.6741C26.9197 10.7849 27.0308 10.941 27.0861 11.1195C27.1414 11.298 27.1381 11.4896 27.0767 11.6661C27.0153 11.8426 26.899 11.9948 26.7448 12.1004L19.6327 16.9731L22.3742 25.0958C22.4186 25.2273 22.4311 25.3675 22.4106 25.5048C22.3902 25.6421 22.3373 25.7726 22.2565 25.8854C22.1757 25.9982 22.0691 26.0902 21.9457 26.1538C21.8223 26.2173 21.6856 26.2506 21.5468 26.2508Z" fill="#FFDB47"/>
</svg>
