<svg width="30" height="30" viewBox="0 0 30 30" fill="none" xmlns="http://www.w3.org/2000/svg">
<path d="M28.1506 17.6686L17.6789 28.1431C17.4076 28.4147 17.0854 28.6302 16.7308 28.7773C16.3762 28.9243 15.9961 29 15.6123 29C15.2284 29 14.8483 28.9243 14.4937 28.7773C14.1391 28.6302 13.8169 28.4147 13.5457 28.1431L1 15.6088V1H15.6049L28.1506 13.5489C28.6946 14.0964 29 14.8369 29 15.6088C29 16.3807 28.6946 17.1212 28.1506 17.6686V17.6686Z" stroke="white" stroke-width="2" stroke-linecap="round" stroke-linejoin="round"/>
<mask id="path-2-inside-1" fill="white">
<ellipse cx="8.23894" cy="8.08772" rx="1.143" ry="1.11897"/>
</mask>
<ellipse cx="8.23894" cy="8.08772" rx="1.143" ry="1.11897" fill="white"/>
<path d="M7.38194 8.08772C7.38194 7.5613 7.8059 7.20669 8.23894 7.20669V11.2067C9.9345 11.2067 11.3819 9.85012 11.3819 8.08772H7.38194ZM8.23894 7.20669C8.67199 7.20669 9.09595 7.5613 9.09595 8.08772H5.09595C5.09595 9.85012 6.54338 11.2067 8.23894 11.2067V7.20669ZM9.09595 8.08772C9.09595 8.61414 8.67199 8.96875 8.23894 8.96875V4.96875C6.54338 4.96875 5.09595 6.32532 5.09595 8.08772H9.09595ZM8.23894 8.96875C7.8059 8.96875 7.38194 8.61414 7.38194 8.08772H11.3819C11.3819 6.32532 9.9345 4.96875 8.23894 4.96875V8.96875Z" fill="white" mask="url(#path-2-inside-1)"/>
</svg>
