<svg width="28" height="28" viewBox="0 0 28 28" fill="none" xmlns="http://www.w3.org/2000/svg">
<path d="M18.1913 3.53172C17.1271 2.38273 15.6407 1.75 14.0001 1.75C12.3507 1.75 10.8594 2.37891 9.80005 3.52078C8.72927 4.67523 8.20755 6.24422 8.33005 7.93844C8.57287 11.2809 11.1164 14 14.0001 14C16.8837 14 19.4229 11.2815 19.6695 7.93953C19.7937 6.26062 19.2687 4.69492 18.1913 3.53172Z" stroke="white" stroke-width="2" stroke-linecap="round" stroke-linejoin="round"/>
<path d="M23.6251 26.25H4.37507C4.1231 26.2533 3.87358 26.2003 3.64464 26.0951C3.41571 25.9898 3.21312 25.8348 3.05163 25.6413C2.69616 25.2164 2.55288 24.6362 2.65897 24.0494C3.12054 21.4889 4.56101 19.338 6.82507 17.8281C8.83647 16.4877 11.3844 15.75 14.0001 15.75C16.6158 15.75 19.1637 16.4883 21.1751 17.8281C23.4391 19.3375 24.8796 21.4884 25.3412 24.0488C25.4473 24.6356 25.304 25.2159 24.9485 25.6408C24.7871 25.8343 24.5845 25.9894 24.3556 26.0948C24.1266 26.2002 23.8771 26.2532 23.6251 26.25Z" stroke="white" stroke-width="2" stroke-linecap="round" stroke-linejoin="round"/>
</svg>
