<svg width="100" height="100" viewBox="0 0 100 100" fill="none" xmlns="http://www.w3.org/2000/svg">
<circle cx="49.9996" cy="50.0006" r="39.2857" fill="#1D1B1B"/>
<path d="M49.9992 25C48.0697 25 46.3052 25.8762 46.4344 26.9048L48.2168 52.619C48.2168 52.8716 48.4046 53.1139 48.7388 53.2925C49.0731 53.4711 49.5264 53.5714 49.9992 53.5714C50.4719 53.5714 50.9252 53.4711 51.2595 53.2925C51.5938 53.1139 51.7815 52.8716 51.7815 52.619L53.5639 26.9048C53.6931 25.8762 51.9286 25 49.9992 25Z" fill="white"/>
<path d="M49.5527 74.1074C51.2786 74.1074 52.6777 72.7083 52.6777 70.9824C52.6777 69.2565 51.2786 67.8574 49.5527 67.8574C47.8268 67.8574 46.4277 69.2565 46.4277 70.9824C46.4277 72.7083 47.8268 74.1074 49.5527 74.1074Z" fill="white"/>
</svg>
