<svg width="16" height="16" viewBox="0 0 16 16" fill="none" xmlns="http://www.w3.org/2000/svg">
<ellipse cx="8.00056" cy="7.99958" rx="6.28571" ry="6.28572" fill="#EB5757"/>
<path d="M7.99916 4C7.69046 4 7.40813 4.14019 7.4288 4.30476L7.71398 8.41905C7.71398 8.45946 7.74403 8.49822 7.79751 8.5268C7.85099 8.55537 7.92353 8.57143 7.99916 8.57143C8.0748 8.57143 8.14733 8.55537 8.20082 8.5268C8.2543 8.49822 8.28434 8.45946 8.28434 8.41905L8.56952 4.30476C8.5902 4.14019 8.30787 4 7.99916 4Z" fill="white"/>
<path d="M7.92773 11.8574C8.20388 11.8574 8.42774 11.6336 8.42774 11.3574C8.42774 11.0813 8.20388 10.8574 7.92773 10.8574C7.65159 10.8574 7.42773 11.0813 7.42773 11.3574C7.42773 11.6336 7.65159 11.8574 7.92773 11.8574Z" fill="white"/>
</svg>
